<svg width="19" height="15" viewBox="0 0 19 15" fill="none" xmlns="http://www.w3.org/2000/svg">
<path d="M4.92942 2.7626H6.44595V5.52515H3.20283L4.07764 3.34101C4.21576 2.99281 4.55245 2.7626 4.92942 2.7626ZM7.82722 5.52515V2.7626H10.1639C10.443 2.7626 10.7078 2.88921 10.8833 3.10792L12.8171 5.52515H7.82722ZM15.1998 5.55392L12.3221 1.95685C11.7984 1.30075 11.0042 0.920898 10.1639 0.920898H4.92942C3.7985 0.920898 2.78269 1.60866 2.36543 2.65612L1.16833 5.65176C0.483446 5.92226 0 6.587 0 7.36684V10.5898C0 11.0992 0.411505 11.5107 0.920849 11.5107H1.87911C2.09781 12.8171 3.23448 13.8128 4.60425 13.8128C5.97401 13.8128 7.11068 12.8171 7.32939 11.5107H11.0905C11.3092 12.8171 12.4459 13.8128 13.8156 13.8128C15.1854 13.8128 16.3221 12.8171 16.5408 11.5107H17.499C18.0084 11.5107 18.4199 11.0992 18.4199 10.5898V9.20854C18.4199 7.33231 17.0156 5.78413 15.2026 5.55392H15.1998ZM12.5092 10.5898C12.5678 10.4165 12.6603 10.2565 12.7812 10.1192C12.9022 9.98188 13.0493 9.86998 13.2138 9.78999C13.3784 9.71 13.5573 9.6635 13.74 9.65321C13.9227 9.64292 14.1056 9.66903 14.2781 9.73003C14.4506 9.79104 14.6093 9.88572 14.745 10.0086C14.8806 10.1314 14.9904 10.28 15.0682 10.4457C15.1459 10.6113 15.1899 10.7908 15.1977 10.9736C15.2054 11.1564 15.1768 11.339 15.1134 11.5107C15.0548 11.684 14.9623 11.844 14.8414 11.9813C14.7204 12.1186 14.5734 12.2305 14.4088 12.3105C14.2442 12.3905 14.0653 12.437 13.8826 12.4473C13.6999 12.4576 13.517 12.4315 13.3445 12.3705C13.172 12.3094 13.0133 12.2148 12.8777 12.0919C12.742 11.9691 12.6322 11.8205 12.5544 11.6548C12.4767 11.4892 12.4327 11.3097 12.4249 11.1269C12.4172 10.944 12.4458 10.7615 12.5092 10.5898ZM4.60425 9.66897C4.97058 9.66897 5.32192 9.8145 5.58096 10.0735C5.83999 10.3326 5.98552 10.6839 5.98552 11.0502C5.98552 11.4166 5.83999 11.7679 5.58096 12.027C5.32192 12.286 4.97058 12.4315 4.60425 12.4315C4.23791 12.4315 3.88658 12.286 3.62754 12.027C3.3685 11.7679 3.22297 11.4166 3.22297 11.0502C3.22297 10.6839 3.3685 10.3326 3.62754 10.0735C3.88658 9.8145 4.23791 9.66897 4.60425 9.66897Z" fill="#2E3192"/>
</svg>
