<svg width="18" height="18" viewBox="0 0 18 18" fill="none" xmlns="http://www.w3.org/2000/svg">
<path d="M13.6084 18H3.2002C2.0802 18 1.5198 18.0002 1.0918 17.7822C0.715544 17.5905 0.409508 17.2845 0.217773 16.9082C-0.000226557 16.4802 0 15.9198 0 14.7998V5.82227L11.1338 4.80957L13.6084 18ZM18 14.7998C18 15.9198 18.0002 16.4802 17.7822 16.9082C17.5905 17.2845 17.2845 17.5905 16.9082 17.7822C16.6042 17.9372 16.2326 17.9821 15.6406 17.9951L13.1348 4.62793L18 4.18555V14.7998ZM6 8.5C4.196 8.5 2.5 9.9123 2.5 12.0293C2.5002 14.1881 4.64029 15.7037 5.57324 16.2627C5.70222 16.3401 5.8496 16.3809 6 16.3809C6.1504 16.3809 6.29778 16.3401 6.42676 16.2627C7.35972 15.7037 9.49982 14.1881 9.5 12.0303C9.5 9.91227 7.867 8.5 6 8.5ZM6 11C6.55228 11 7 11.4477 7 12C7 12.5523 6.55228 13 6 13C5.44772 13 5 12.5523 5 12C5 11.4477 5.44772 11 6 11ZM14.7998 0C15.9198 0 16.4802 -0.000226557 16.9082 0.217773C17.2845 0.409508 17.5905 0.715544 17.7822 1.0918C17.9202 1.36375 17.9712 1.68988 17.9902 2.17773L0 3.81445V3.2002C0 2.0802 -0.000226557 1.5198 0.217773 1.0918C0.409508 0.715545 0.715545 0.409508 1.0918 0.217773C1.5198 -0.000226557 2.0802 0 3.2002 0H14.7998Z" fill="white"/>
</svg>
