<svg width="22" height="22" viewBox="0 0 22 22" fill="none" xmlns="http://www.w3.org/2000/svg">
<path d="M11.9785 0V2.25391C13.895 2.49694 15.6769 3.37039 17.043 4.73633C18.409 6.10241 19.2823 7.88422 19.5254 9.80078H21.7803V11.9785H19.5254C19.2823 13.8952 18.4091 15.6768 17.043 17.043C15.6768 18.4091 13.8952 19.2823 11.9785 19.5254V21.7803H9.80078V19.5254C7.88422 19.2823 6.10241 18.409 4.73633 17.043C3.37039 15.6769 2.49694 13.895 2.25391 11.9785H0V9.80078H2.25391C2.49699 7.88418 3.37023 6.10243 4.73633 4.73633C6.10243 3.37023 7.88418 2.49699 9.80078 2.25391V0H11.9785ZM10.8896 4.35645C7.28534 4.35664 4.35664 7.28534 4.35645 10.8896C4.35645 14.4941 7.28522 17.4236 10.8896 17.4238C14.4942 17.4238 17.4238 14.4942 17.4238 10.8896C17.4236 7.28522 14.4941 4.35645 10.8896 4.35645ZM10.8896 7.62305C11.7561 7.62305 12.5875 7.9674 13.2002 8.58008C13.8127 9.19266 14.1571 10.0234 14.1572 10.8896C14.1572 11.7561 13.8129 12.5875 13.2002 13.2002C12.5875 13.8129 11.7561 14.1572 10.8896 14.1572C10.0234 14.1571 9.19266 13.8127 8.58008 13.2002C7.9674 12.5875 7.62305 11.7561 7.62305 10.8896C7.62314 10.0233 7.96749 9.19267 8.58008 8.58008C9.19267 7.96748 10.0233 7.62315 10.8896 7.62305Z" fill="#2E3192"/>
</svg>
