<svg width="20" height="25" viewBox="0 0 20 25" fill="none" xmlns="http://www.w3.org/2000/svg">
<path d="M7.86207 22.9962C8.5317 23.5487 9.23007 24.0536 9.945 24.5465C10.6615 24.0602 11.3564 23.5429 12.0279 22.9962C13.1473 22.077 14.2007 21.0805 15.1805 20.0138C17.4391 17.5441 19.89 13.9639 19.89 9.945C19.89 8.639 19.6328 7.3458 19.133 6.13921C18.6332 4.93263 17.9007 3.8363 16.9772 2.91282C16.0537 1.98934 14.9574 1.2568 13.7508 0.757018C12.5442 0.257235 11.251 0 9.945 0C8.639 0 7.3458 0.257235 6.13921 0.757018C4.93263 1.2568 3.8363 1.98934 2.91282 2.91282C1.98934 3.8363 1.2568 4.93263 0.757018 6.13921C0.257235 7.3458 -1.94609e-08 8.639 0 9.945C0 13.9639 2.45089 17.543 4.70951 20.0138C5.68923 21.0808 6.74267 22.0767 7.86207 22.9962ZM9.945 13.5363C8.99254 13.5363 8.07909 13.1579 7.4056 12.4844C6.73211 11.8109 6.35375 10.8975 6.35375 9.945C6.35375 8.99254 6.73211 8.07909 7.4056 7.4056C8.07909 6.73211 8.99254 6.35375 9.945 6.35375C10.8975 6.35375 11.8109 6.73211 12.4844 7.4056C13.1579 8.07909 13.5363 8.99254 13.5363 9.945C13.5363 10.8975 13.1579 11.8109 12.4844 12.4844C11.8109 13.1579 10.8975 13.5363 9.945 13.5363Z" fill="#2E3192"/>
</svg>
