<svg width="90" height="54" viewBox="0 0 90 54" fill="none" xmlns="http://www.w3.org/2000/svg">
<path d="M80.0009 0.963525C83.4828 -0.785657 86.4317 1.50084 87.9511 4.60415C88.5138 5.75354 89.0394 6.95464 89.3066 8.22817C89.6637 10.6931 89.4522 13.6229 88.706 15.987C87.5986 19.4812 85.1653 22.4018 81.9287 24.1217C81.5934 24.2964 81.1095 24.5228 80.7568 24.6579C82.8866 25.4488 84.1436 26.6141 85.1152 28.6901C85.9171 30.4036 86.0418 31.7998 86.1816 33.6198C86.7481 40.9908 82.7021 48.7201 75.8593 51.8229C72.2531 53.4583 67.6112 53.7867 63.7919 52.6315C64.1521 50.4766 64.4344 48.2986 64.7861 46.1413C64.8373 45.8268 64.8811 45.5095 64.9179 45.193C65.8556 45.5467 66.4911 45.7483 67.4824 45.8991C71.8235 46.5583 75.4728 43.6032 77.6787 40.1383C77.9965 39.6383 78.3437 39.064 78.5585 38.5006C79.4003 35.8822 80.0571 32.3669 78.8837 29.7877C78.3017 28.4901 77.2199 27.4819 75.8847 26.9928C75.2733 26.7645 74.5462 26.5897 73.8935 26.5993C74.1661 25.2323 74.4974 23.4451 74.5556 22.0387C80.8906 21.6607 83.2056 11.0557 83.4638 5.94497C83.4967 5.29606 83.0911 4.56748 82.3896 5.19106C78.6511 8.44539 76.309 13.1557 74.2265 17.5739C71.9536 22.2652 70.4026 27.062 68.9599 32.0641C68.1381 34.9208 67.3771 37.7949 66.6777 40.6842L60.0937 40.6413L63.0722 22.2184C63.5463 19.3076 64.0468 16.4576 64.5781 13.5602C65.2283 10.0159 65.4765 6.21348 65.3427 2.61587C65.3134 2.03342 65.2717 1.34321 65.1806 0.766259L71.7168 0.793603C72.8204 4.7296 70.5909 15.2596 69.6054 19.567L69.8212 19.442C71.4878 13.7589 73.9642 7.47835 77.7978 2.88638C78.3182 2.26263 79.288 1.32175 80.0009 0.963525ZM38.8066 10.5543C40.9228 10.6325 43.377 10.5815 45.5185 10.5856C45.027 11.5268 44.4318 15.3968 44.2607 16.6159C47.8679 16.5103 51.5548 16.1686 55.166 16.568C55.4892 16.6037 55.8073 16.6682 56.123 16.7448C55.9061 19.0335 55.3558 21.5335 55.1259 23.8297C51.2088 23.4309 47.2639 23.382 43.3378 23.6852C42.7722 25.8066 42.4263 29.6647 42.5078 31.8786C44.3184 34.454 49.2187 33.8629 51.8291 33.3346C53.3612 33.0202 54.8693 32.5983 56.3427 32.0729C55.9751 34.3935 55.6763 36.873 55.2724 39.1725C55.1924 39.224 55.1098 39.2721 55.0253 39.3161C51.9314 40.9252 47.9846 41.7278 44.5937 40.6393C41.7041 39.69 39.2987 37.6507 37.8886 34.9557C35.3331 29.9542 36.666 20.433 37.75 15.0377C37.9849 13.8687 38.4399 11.6831 38.8066 10.5543ZM25.7021 2.26138C27.5843 1.31901 31.1631 -0.561275 33.3222 0.161767C33.8851 0.347508 34.3477 0.755399 34.6025 1.29067C35.2487 2.64695 34.7633 4.52634 34.4697 5.91665C34.2017 7.19492 33.9201 8.47032 33.6259 9.74282C31.6716 18.0313 29.2236 26.1958 26.2949 34.192C25.7776 35.6064 25.2422 37.0141 24.6884 38.4147C24.5423 38.7813 24.148 39.8213 23.9707 40.1344C22.1069 40.8238 17.7189 41.7411 17.0478 39.1266C16.1892 35.7799 16.1078 31.9004 15.7744 28.4381C15.6438 27.082 15.4598 25.7833 15.4501 24.4225C15.3994 21.6676 15.5238 18.9519 15.6699 16.2028C15.6786 16.1782 15.6878 16.1041 15.6962 16.0045C15.6879 16.1034 15.6786 16.1769 15.6699 16.2018C15.6305 16.1768 15.5722 16.1662 15.5253 16.153C14.0268 23.2705 11.7579 30.1881 9.19624 36.9879C9.04959 37.3773 8.24705 39.7194 7.94136 39.8493C6.56335 40.4341 2.36299 41.5348 1.43745 39.8366C0.605322 38.3096 0.613613 35.829 0.439405 34.1051C-0.212799 25.348 -0.0313053 16.5552 0.293897 7.7897C0.386078 5.30571 0.600983 2.77933 0.684523 0.341455C2.78787 0.344191 5.02732 0.416483 7.1064 0.375634C6.83777 3.74744 6.71383 7.4916 6.59663 10.8708L5.99605 30.1413C7.68195 26.457 8.74548 22.2599 9.89155 18.3727C10.1101 17.6317 10.3863 16.9068 10.6191 16.1686C11.0314 14.8319 11.4231 13.4884 11.7929 12.1393C12.3986 9.9483 12.988 7.75278 13.5625 5.55337C13.8662 4.39125 14.1743 3.08499 14.5068 1.93911C20.0454 0.409787 20.4299 2.81074 20.08 7.65395C20.0667 7.8381 20.0879 8.21584 20.0927 8.41665C20.1244 9.71685 20.1733 11.0188 20.2343 12.318C20.4652 16.7683 20.7372 21.2165 21.0507 25.6618C21.1567 27.261 21.3168 28.965 21.3906 30.5534C22.9908 25.5459 24.4166 19.8675 25.7744 14.7555L27.1748 9.45181C27.6298 7.72249 29.3608 2.91046 25.5488 5.26528C25.4559 5.3228 25.3631 5.38068 25.2714 5.44009C25.4328 4.43548 25.5075 3.2254 25.7021 2.26138ZM51.2089 0.680322C54.1003 0.690676 56.9911 0.807301 59.874 1.02895C59.6864 3.31161 59.2336 5.82333 59.0068 8.1686C58.673 8.15682 58.304 8.15758 57.9687 8.16763C54.9292 8.25866 51.8827 8.21141 48.8447 8.29653C48.3223 8.29504 47.7835 8.31098 47.2607 8.32681C44.0384 8.42413 40.778 8.42764 37.5634 8.66567C37.6054 7.93487 37.7459 7.03507 37.833 6.29751C38.0168 4.71604 38.2103 3.13558 38.4121 1.5563C39.7455 1.39193 41.0341 1.1884 42.3867 1.05825C44.3812 0.883163 46.3813 0.765369 48.3828 0.705712C49.219 0.655187 50.3509 0.679327 51.2089 0.680322Z" fill="white"/>
</svg>
