<svg width="807" height="189" viewBox="0 0 807 189" fill="none" xmlns="http://www.w3.org/2000/svg">
<path d="M8.81823 142L10.9107 20.9362H33.7783L50.9664 104.784L68.9017 20.9362H91.022L93.264 142H76.8232L75.0297 57.8532L57.8416 142H44.5395L27.0525 57.5543L25.4085 142H8.81823ZM106.509 142L130.722 20.9362H154.336L178.549 142H158.073L153.29 114.051H132.216L127.284 142H106.509ZM134.458 100.001H150.899L142.678 49.1844L134.458 100.001ZM192.219 142V20.9362H227.791C235.065 20.9362 240.944 22.2814 245.427 24.9717C250.011 27.662 253.349 31.5978 255.441 36.7791C257.633 41.8608 258.73 48.0385 258.73 55.3123C258.73 63.184 257.384 69.561 254.694 74.4434C252.004 79.2262 248.217 82.7136 243.335 84.9057C238.552 87.0978 232.873 88.1939 226.296 88.1939H214.339V142H192.219ZM214.339 72.6499H222.709C226.695 72.6499 229.784 72.1018 231.976 71.0058C234.268 69.8101 235.812 67.9667 236.609 65.4757C237.506 62.8851 237.954 59.4474 237.954 55.1629C237.954 50.7787 237.606 47.2414 236.908 44.5511C236.31 41.7612 234.915 39.7185 232.723 38.4232C230.631 37.1279 227.293 36.4802 222.709 36.4802H214.339V72.6499ZM259.397 142L283.61 20.9362H307.225L331.438 142H310.962L306.179 114.051H285.105L280.173 142H259.397ZM287.347 100.001H303.787L295.567 49.1844L287.347 100.001Z" fill="white"/>
<path d="M361.693 44.241C361.693 36.8028 361.693 33.0836 363.141 30.2412C364.415 27.742 366.446 25.7101 368.946 24.4367C371.788 22.9889 375.507 22.9889 382.946 22.9889H459.985C467.423 22.9889 471.142 22.9889 473.984 24.4367C476.484 25.7101 478.516 27.742 479.789 30.2412C481.237 33.0836 481.237 36.8028 481.237 44.241V121.28C481.237 128.718 481.237 132.438 479.789 135.28C478.516 137.779 476.484 139.811 473.984 141.084C471.142 142.532 467.423 142.532 459.985 142.532H382.946C375.507 142.532 371.788 142.532 368.946 141.084C366.446 139.811 364.415 137.779 363.141 135.28C361.693 132.438 361.693 128.718 361.693 121.28V44.241Z" stroke="white" stroke-width="8.92115" stroke-linecap="round"/>
<path d="M467.954 142.532L441.389 46.2334M481.237 42.9128L361.693 56.1954M428.106 96.6276C428.106 108.848 416.557 117.515 411.045 120.961C410.187 121.5 409.195 121.786 408.182 121.786C407.17 121.786 406.178 121.5 405.32 120.961C399.808 117.515 388.259 108.841 388.259 96.6276C388.259 84.3213 397.915 76.1193 408.182 76.1193C418.809 76.1193 428.106 84.3213 428.106 96.6276Z" stroke="white" stroke-width="8.92115"/>
<path d="M775.58 19.9609C786.79 14.3294 796.285 21.6911 801.177 31.6826C802.988 35.3829 804.679 39.2478 805.539 43.3477C806.689 51.2836 806.007 60.7157 803.604 68.3272C800.039 79.577 792.207 88.9811 781.787 94.5186C780.707 95.0808 779.148 95.8094 778.012 96.2441C784.869 98.7906 788.917 102.541 792.045 109.225C794.627 114.742 795.029 119.236 795.479 125.096C797.304 148.827 784.276 173.713 762.245 183.702C750.634 188.967 735.69 190.023 723.394 186.304C724.554 179.366 725.464 172.355 726.596 165.409C726.761 164.397 726.902 163.376 727.02 162.357C730.039 163.496 732.085 164.145 735.277 164.63C749.253 166.752 761.002 157.239 768.103 146.084C769.127 144.474 770.243 142.624 770.935 140.81C773.645 132.379 775.759 121.062 771.981 112.759C770.107 108.581 766.625 105.337 762.326 103.763C760.358 103.028 758.018 102.464 755.917 102.495C756.794 98.0943 757.862 92.3415 758.05 87.8135C778.445 86.5964 785.898 52.4518 786.729 35.9981C786.835 33.9089 785.528 31.5627 783.269 33.5703C771.233 44.0475 763.694 59.2121 756.989 73.4365C749.671 88.5405 744.679 103.984 740.034 120.089C737.388 129.286 734.938 138.54 732.686 147.842L711.488 147.7L721.077 88.3906C722.603 79.0194 724.216 69.8446 725.927 60.5166C728.02 49.1057 728.817 36.8639 728.386 25.2813C728.292 23.4061 728.158 21.1847 727.865 19.3272L748.907 19.4121C752.461 32.0829 745.283 65.9865 742.11 79.8545C741.492 81.7854 741.322 83.8501 740.706 85.8447L740.705 85.8467L740.877 86.1182C740.749 86.649 740.667 87.2078 740.368 87.6494L740.369 87.6514C740.668 87.2096 740.751 86.6495 740.879 86.1182V86.1162L740.707 85.8447C741.323 83.85 741.494 81.7855 742.112 79.8545L742.805 79.4531L742.806 79.4522C748.172 61.1554 756.146 40.9361 768.488 26.1523C770.163 24.1441 773.285 21.1141 775.58 19.9609ZM642.956 50.8369C649.769 51.0885 657.671 50.9273 664.566 50.9404C662.984 53.9713 661.067 66.4291 660.516 70.3535C672.13 70.0136 684 68.9133 695.626 70.1992C696.667 70.3142 697.691 70.5217 698.708 70.7686C698.009 78.1371 696.236 86.1844 695.496 93.5772C682.885 92.2932 670.184 92.138 657.544 93.1143C655.723 99.9441 654.61 112.364 654.873 119.491C660.702 127.782 676.477 125.879 684.881 124.178C689.814 123.165 694.67 121.809 699.414 120.117C698.23 127.589 697.268 135.571 695.968 142.975C695.71 143.141 695.444 143.295 695.172 143.437C685.211 148.617 672.506 151.201 661.589 147.696C652.285 144.64 644.542 138.076 640.002 129.399C631.773 113.297 636.065 82.6415 639.555 65.2715C640.312 61.5073 641.775 54.4706 642.956 50.8369ZM600.767 24.1397C606.827 21.1057 618.348 15.0521 625.299 17.3799C627.111 17.9779 628.6 19.2911 629.421 21.0147C631.501 25.3811 629.938 31.4302 628.993 35.9063C628.13 40.0221 627.224 44.1294 626.277 48.2266C619.985 74.9109 612.104 101.195 602.675 126.938C601.009 131.493 599.285 136.025 597.502 140.535C597.031 141.716 595.762 145.064 595.191 146.071C589.191 148.291 575.064 151.243 572.904 142.825C570.14 132.05 569.879 119.56 568.805 108.413C568.385 104.047 567.791 99.868 567.76 95.4873C567.596 86.6174 567.997 77.8738 568.468 69.0225C568.58 68.7063 568.697 65.8491 568.724 65.3135C568.724 65.3164 568.722 65.3193 568.721 65.3223C568.693 65.8813 568.579 68.7062 568.467 69.0215C568.34 68.9409 568.153 68.9057 568.002 68.8633V68.8643C563.177 91.7787 555.873 114.049 547.626 135.94C547.154 137.194 544.571 144.734 543.587 145.153C539.15 147.036 525.628 150.578 522.648 145.111C519.969 140.195 519.996 132.209 519.435 126.659C517.336 98.4655 517.92 70.1573 518.967 41.9365C519.263 33.939 519.955 25.8061 520.224 17.957C526.996 17.9659 534.204 18.1989 540.897 18.0674C540.032 28.9234 539.633 40.9788 539.256 51.8584L537.323 113.896C542.751 102.035 546.174 88.5243 549.864 76.0098C550.568 73.6234 551.458 71.2895 552.208 68.9121C553.535 64.6086 554.795 60.2839 555.985 55.9404C557.935 48.8864 559.835 41.8184 561.684 34.7373C562.662 30.9955 563.653 26.79 564.723 23.1006C582.555 18.177 583.792 25.9084 582.666 41.501C582.623 42.0939 582.69 43.3097 582.706 43.9561C582.808 48.142 582.966 52.3329 583.163 56.5156C583.906 70.8434 584.783 85.164 585.793 99.4756C586.134 104.624 586.649 110.11 586.886 115.224C592.038 99.1021 596.627 80.8211 600.998 64.3633L605.509 47.2871C606.974 41.7193 612.544 26.2278 600.271 33.8096C599.972 33.9947 599.676 34.1828 599.381 34.374C599.9 31.1396 600.141 27.2435 600.767 24.1397ZM673.786 19.1318C676.478 18.9691 680.122 19.0466 682.885 19.0498C692.193 19.0831 701.499 19.4563 710.781 20.1699C710.177 27.5191 708.721 35.6064 707.991 43.1572C706.916 43.1193 705.729 43.1219 704.649 43.1543C694.863 43.4474 685.054 43.2962 675.273 43.5703C673.592 43.5655 671.857 43.6151 670.174 43.666C659.8 43.9793 649.304 43.9925 638.955 44.7588C639.09 42.4059 639.543 39.5087 639.823 37.1338C640.415 32.0423 641.036 26.9536 641.685 21.8691C645.979 21.3399 650.129 20.6847 654.484 20.2656C660.905 19.702 667.343 19.3239 673.786 19.1318Z" fill="white"/>
</svg>
